<?xml version="1.0" encoding="utf-8"?>
<!-- Generator: Adobe Illustrator 24.0.0, SVG Export Plug-In . SVG Version: 6.00 Build 0)  -->
<svg version="1.1" id="Layer_1" xmlns="http://www.w3.org/2000/svg" xmlns:xlink="http://www.w3.org/1999/xlink" x="0px" y="0px"
	 viewBox="0 0 30.37 31" style="enable-background:new 0 0 30.37 31;" xml:space="preserve">
<style type="text/css">
	.st1{fill:#000000;}
	.st2{fill:none;}
	.st3{fill:none;stroke:#000000;stroke-width:2;}
</style>
<g id="Group_125_1_" transform="translate(80)">
	<g id="Group_124_1_" transform="translate(1650.32 20.611)">
		<g id="Group_123_1_">
			<path id="Path_5450_1_" class="st1" d="M-1715.13-7.65c0.32,0,0.63-0.12,0.85-0.35c0.23-0.22,0.36-0.52,0.35-0.84
				c0.01-0.32-0.12-0.64-0.35-0.86c-0.23-0.22-0.53-0.35-0.85-0.34c-0.32-0.01-0.62,0.12-0.84,0.35c-0.23,0.22-0.36,0.53-0.35,0.85
				c-0.01,0.32,0.12,0.62,0.35,0.84C-1715.75-7.77-1715.45-7.64-1715.13-7.65z"/>
			<path id="Path_5451_1_" class="st1" d="M-1712.57-1.92h-0.79c0,0-0.39,0.01-0.4-0.35c-0.04-0.47-0.07-0.86-0.07-0.97l-0.05-1.15
				c0-0.07-0.01-0.16-0.01-0.27c0-0.25,0-0.45-0.01-0.59c0-0.05-0.01-0.11-0.01-0.18l0.02-0.49v-1.15
				c-0.95,0.48-1.96,0.82-3.01,1.02l-0.17,0.81c0.15,0.03,0.31,0.05,0.47,0.05c0.2,0,0.4-0.04,0.59-0.11l0.03,1.64
				c0,0.4,0.01,0.91,0.02,1.42c0.01,0.17-0.12,0.32-0.29,0.32c-0.01,0-0.02,0-0.03,0h-0.86v1.76h4.57V-1.92z"/>
		</g>
	</g>
	<g id="Ellipse_22_1_" transform="translate(1643 16)">
		<circle class="st2" cx="-1707.64" cy="-0.55" r="9.5"/>
		<circle class="st3" cx="-1707.64" cy="-0.55" r="8.5"/>
	</g>
</g>
</svg>
