<?xml version="1.0" encoding="UTF-8"?>
<!DOCTYPE svg PUBLIC "-//W3C//DTD SVG 1.1//EN" "http://www.w3.org/Graphics/SVG/1.1/DTD/svg11.dtd">
<!-- Creator: CorelDRAW 2018 (64-Bit) -->
<svg xmlns="http://www.w3.org/2000/svg" xml:space="preserve" width="210mm" height="297mm" version="1.1" style="shape-rendering:geometricPrecision; text-rendering:geometricPrecision; image-rendering:optimizeQuality; fill-rule:evenodd; clip-rule:evenodd"
viewBox="0 0 21000 29700"
 xmlns:xlink="http://www.w3.org/1999/xlink"
 xmlns:dc="http://purl.org/dc/elements/1.1/"
 xmlns:cc="http://creativecommons.org/ns#"
 xmlns:rdf="http://www.w3.org/1999/02/22-rdf-syntax-ns#"
 xmlns:svg="http://www.w3.org/2000/svg"
 xmlns:sodipodi="http://sodipodi.sourceforge.net/DTD/sodipodi-0.dtd"
 xmlns:inkscape="http://www.inkscape.org/namespaces/inkscape">
 <defs>
  <style type="text/css">
   <![CDATA[
    .str0 {stroke:#FF0000;stroke-width:20;stroke-miterlimit:22.9256}
    .fil0 {fill:#000000}
    .fil1 {fill:#FF0000}
    .fil2 {fill:#FF8080}
    .fil3 {fill:#FFFFFF}
   ]]>
  </style>
 </defs>
 <g id="Layer_x0020_1">
  <metadata id="CorelCorpID_0Corel-Layer"/>
  <path class="fil0" d="M14551 12499c-210,0 -567,63 -840,483l-1302 0c-273,-399 -630,-483 -840,-483 -231,0 -672,105 -966,714 -105,210 -189,483 -252,840 -126,630 -189,1449 -168,2331 0,861 84,1701 210,2331 0,42 21,84 21,126 -1176,252 -2709,525 -3612,525 -1596,0 -5775,1029 -2583,2037 3192,1008 4557,2142 2877,2730 -1701,588 -1344,1596 2898,1869 4242,273 9849,-1743 6090,-2394 -3759,-651 -7140,-1491 -5376,-1638 1764,-168 231,-1743 -756,-1659 -525,42 147,-210 861,-441 273,357 588,420 798,420 210,0 567,-63 840,-483z"/>
  <path class="fil1" d="M11359.91 8082.47c-284.88,140.75 -528.77,387.86 -669.48,700.69 -101.59,225.85 -153.07,485.19 -177.22,779.27 -1041.31,-323.21 -1979.44,-508.76 -2756.69,-478.04 -293.53,15.1 -559.75,63.04 -807.32,137.52 -384.34,188.97 -562.74,549.74 -708.87,923.34 -79.19,202.48 -142.34,419.21 -203.47,641.76 -1256.46,-391.32 -2588.6,-643.29 -4095.66,-648.31 -432.86,-1.47 -882,17.66 -1345.53,58.94 -192.03,16.97 -360.34,182 -380.69,373.26 -130.29,1183.38 577.98,2428.07 1266.77,3791.6 688.79,1363.53 1392.11,2822.11 1489.93,4204.14 12.6,178.75 152.84,341.06 328.18,379.83 4744.01,1088.12 9662.8,869.06 14544.85,654.84 142.53,-6.72 278.91,-91.46 347.87,-216.09l1699.96 -2992.67c134.81,-237.09 -37.8,-585.19 -308.49,-622.13 -559.3,-82.59 -1094.6,-177.64 -1608.07,-288.12 -214.16,-667.32 -499.15,-1205.02 -938.59,-1637.14 -423.96,-416.89 -999.07,-716.44 -1713.09,-1001.93l0 -766.16c-45.57,-277.96 -215.46,-365.8 -420.07,-491.15l0 -1669.87c0.84,-111.58 -45.19,-222.78 -124.71,-301.23 -457.37,-451.94 -1061.33,-885.07 -1654.02,-1191.83 -641.83,-324.85 -1125.36,-513.71 -1765.6,-340.52l0.01 0zm-3518.06 1853.25c628.69,-6.34 1514.88,140.9 2500.72,451.85 1291.96,407.51 2757.94,1086.27 4141.61,1938.37l0 785.82c0.21,170.21 115.48,334.41 275.67,392.91 813.44,299.96 1329.09,584.64 1686.83,936.45 223.59,219.87 397.1,472.82 544.78,798.9 -2916.76,-756.76 -5136.1,-1908.31 -7285.55,-2940.28 -953.21,-457.65 -1895.19,-887.48 -2874.84,-1244.23 7.01,-25.22 12.64,-53.81 19.7,-78.58 2370.27,22.22 3926.03,612.34 6373.22,2036.6 190.73,109.7 464.34,36.39 574.31,-153.91 109.97,-190.28 36.49,-463.26 -154.24,-572.99 -2390.74,-1391.4 -4117.59,-2064.75 -6465.11,-2141.37 54.86,-84.87 101.77,-135.37 124.71,-150.62 145.9,-34.99 328.65,-56.82 538.21,-58.94l-0.02 0.02zm-5900.64 1041.21c2854.58,5.29 5015.84,932.59 7397.13,2075.89 2591.72,1244.32 5461.06,2714.42 9543.42,3418.32l-682.61 1211.49c-4968.91,-2.1 -10002.15,-213.13 -14774.57,-1041.22 -281.5,-712.97 -825.95,-1921.65 -1194.57,-2652.15 -595.81,-1179.47 -1079.94,-2231.06 -1155.19,-2979.58 291.29,-17.6 588.96,-33.26 866.39,-32.74l0 -0.01zm4141.6 1781.2c-290,0 -525.08,328.38 -525.08,733.45 0,405.05 235.09,733.43 525.08,733.43 290,0 525.08,-328.38 525.08,-733.43 0,-405.07 -235.09,-733.45 -525.08,-733.45z" display="inline"/>
  <path class="fil3 str0" d="M9705.91 12299.74c2149.45,1031.97 4368.79,2183.52 7285.55,2940.28 -147.68,-326.08 -321.19,-579.03 -544.78,-798.9 -357.74,-351.81 -873.39,-636.49 -1686.83,-936.45 -160.19,-58.5 -275.46,-222.7 -275.67,-392.91l0 -785.82c-1383.67,-852.1 -2849.65,-1530.86 -4141.61,-1938.37 -985.84,-310.95 -1872.03,-458.19 -2500.7,-451.87 -209.56,2.12 -392.31,23.95 -538.21,58.94 -22.94,15.25 -69.85,65.75 -124.71,150.62 2347.52,76.62 4074.37,749.97 6465.11,2141.37 190.73,109.73 264.21,382.71 154.24,572.99 -109.97,190.3 -383.58,263.61 -574.31,153.91 -2447.19,-1424.26 -4002.95,-2014.38 -6373.22,-2036.6 -7.06,24.77 -12.69,53.36 -19.7,78.58 979.65,356.75 1921.63,786.58 2874.84,1244.23z"/>
  <path class="fil2 str0" d="M18881.76 16471.14c-4082.36,-703.9 -6951.7,-2174 -9543.42,-3418.32 -2381.29,-1143.3 -4542.55,-2070.6 -7397.13,-2075.88 -277.43,-0.52 -575.1,15.14 -866.39,32.74 75.25,748.52 559.38,1800.11 1155.19,2979.58 368.62,730.5 913.07,1939.18 1194.57,2652.15 4772.42,828.09 9805.66,1039.12 14774.57,1041.22l682.61 -1211.49zm-12273.87 -2979.56c0,405.05 -235.08,733.43 -525.08,733.43 -289.99,0 -525.08,-328.38 -525.08,-733.43 0,-405.07 235.08,-733.45 525.08,-733.45 289.99,0 525.08,328.38 525.08,733.45z"/>
 </g>
</svg>
