<?xml version="1.0" encoding="UTF-8"?>
<!DOCTYPE svg PUBLIC "-//W3C//DTD SVG 1.1//EN" "http://www.w3.org/Graphics/SVG/1.1/DTD/svg11.dtd">
<!-- Creator: CorelDRAW 2018 (64-Bit) -->
<svg xmlns="http://www.w3.org/2000/svg" xml:space="preserve" width="21mm" height="30mm" version="1.1" 
style="shape-rendering:geometricPrecision; text-rendering:geometricPrecision; image-rendering:optimizeQuality; fill-rule:evenodd; clip-rule:evenodd"
viewBox="0 0 21000 29700"
 xmlns:xlink="http://www.w3.org/1999/xlink">
 <defs>
  <style type="text/css">
   <![CDATA[
    .str0 {stroke:#FF8080;stroke-width:420;stroke-linecap:round;stroke-linejoin:round;stroke-miterlimit:22.9256}
    .fil0 {fill:#FF8080}
   ]]>
  </style>
 </defs>
 <g id="Layer_x0020_1">
  <metadata id="CorelCorpID_0Corel-Layer"/>
  <path class="fil0 str0" d="M19320 11259c-126,-126 -315,-231 -1260,-231 -63,0 -84,0 -84,0l-8484 189 -966 -735c0,0 -21,-21 -21,-21l-1113 -714c-1050,-672 -2247,-1386 -3171,-1554 -210,-42 -441,-63 -651,-63 -420,0 -714,84 -840,126 -189,21 -588,63 -840,189 -105,63 -357,189 -441,504 -63,252 0,525 189,819 336,546 1260,1134 1365,1197 0,0 21,21 21,21l2436 1260 0 0 -294 441 -42 63 -84 105c-189,273 -357,525 -504,756 -273,441 -378,651 -378,672 -21,21 -21,63 -21,84 -21,105 0,231 63,315 105,168 273,189 462,231 0,0 21,0 21,0 42,0 84,0 126,0 0,0 0,0 0,0 21,0 42,0 63,0 0,0 0,0 0,0 0,0 21,0 21,0 21,0 42,0 84,0 0,0 21,0 21,0 21,0 42,0 63,0l21 0 42 0 21 0 42 0c0,0 21,0 21,0l21 0 21 0c0,0 21,0 21,0l3129 -1134 1260 651c-63,105 -63,252 -42,357 63,231 294,336 462,399 42,21 84,21 126,21 42,0 84,0 126,-21l903 -294c189,21 609,84 777,84 21,0 63,0 126,0 189,0 441,-21 609,-231 42,-63 84,-126 105,-189l2016 -126 252 0c168,0 315,-84 378,-231 63,-147 63,-315 -42,-441l-84 -105c-126,-168 -336,-273 -567,-273 0,0 0,0 0,0l-1911 -42 5670 -1008 378 -63c252,-42 546,-84 651,-378 63,-294 -147,-504 -273,-630zm-14259 3213c0,0 0,0 0,0 0,0 0,0 0,0 -21,0 -21,0 -42,0 0,0 0,0 -21,0 0,0 -21,0 -21,0 0,0 0,0 -21,0 0,0 -21,0 -42,0 0,0 -21,0 -21,0 -21,0 -21,0 -42,0 0,0 0,0 -21,0 -21,0 -42,0 -63,0 0,0 0,0 -21,0 -21,0 -21,0 -21,0 0,0 0,0 0,0 -21,0 -42,0 -63,0 0,0 0,0 0,0 -189,-42 -189,-42 -189,-42 0,0 84,-189 357,-630 126,-189 273,-441 483,-735 42,-63 84,-105 105,-168 147,-210 252,-378 336,-483l2058 1071 -2751 987zm13797 -2625c-378,63 -378,63 -378,63l-7077 1260 567 567 2835 84c0,0 0,0 0,0 42,0 147,0 231,105 84,105 84,105 84,105l-252 0 -2457 168c0,0 126,189 21,315 -42,63 -189,63 -294,63 -42,0 -84,0 -105,0 -210,-21 -840,-105 -840,-105l-987 336c0,0 -252,-84 -189,-168 63,-84 378,-273 378,-273l-7182 -3759c0,0 -924,-588 -1239,-1071 -294,-483 -84,-630 105,-735 189,-105 609,-147 714,-147 0,0 294,-105 756,-105 168,0 357,21 588,63 819,147 1890,777 3003,1512 1113,714 1113,714 1113,714l1092 819 8631 -210c0,0 42,0 84,0 231,0 861,0 966,105 210,210 210,231 -168,294z"/>
 </g>
</svg>
