<?xml version="1.0" encoding="UTF-8"?>
<!DOCTYPE svg PUBLIC "-//W3C//DTD SVG 1.1//EN" "http://www.w3.org/Graphics/SVG/1.1/DTD/svg11.dtd">
<!-- Creator: CorelDRAW 2018 (64-Bit) -->
<svg xmlns="http://www.w3.org/2000/svg" xml:space="preserve" width="21mm" height="30mm" version="1.1" 
style="shape-rendering:geometricPrecision; text-rendering:geometricPrecision; image-rendering:optimizeQuality; fill-rule:evenodd; clip-rule:evenodd"
viewBox="0 0 21000 29700"
 xmlns:xlink="http://www.w3.org/1999/xlink">
 <defs>
  <style type="text/css">
   <![CDATA[
    .str0 {stroke:black;stroke-width:420;stroke-linecap:round;stroke-linejoin:round;stroke-miterlimit:22.9256}
    .fil0 {fill:#80FF80}
   ]]>
  </style>
 </defs>
 <g id="Layer_x0020_1">
  <metadata id="CorelCorpID_0Corel-Layer"/>
  <polygon class="fil0 str0" points="15559.11,4567.98 18900,7908.87 16672.53,10136.55 11475.45,4939.05 12589.08,3825.21 "/>
  <rect class="fil0 str0" transform="matrix(-0.7071 0.7071 -0.7071 -0.7071 14816.3 8279.74)" width="4266.57" height="2100"/>
  <path class="fil0 str0" d="M18438.84 17936.16l-10150.77 -10150.14c279.93,-1050.42 10.92,-2216.76 -813.12,-3040.59 -824.04,-824.04 -1990.38,-1093.47 -3040.59,-813.33l1184.4 1184.4c615.3,615.3 614.88,1612.59 0,2227.05 -615.09,615.3 -1611.96,615.3 -2227.26,0l-1184.4 -1184.4c-279.93,1050.42 -10.92,2216.97 813.12,3040.8 823.62,823.83 1990.38,1093.05 3040.8,813.12l1203.3 1203.3c432.81,-56.07 863.73,-54.39 1284.78,6.93 -153.09,564.9 128.31,1168.86 683.55,1399.02 555.45,230.16 1181.04,1.89 1473.36,-505.68 357,266.91 678.51,586.11 952.56,952.35 -507.99,291.69 -736.26,917.49 -505.26,1473.57 228.9,554.82 833.07,836.22 1397.97,683.13 62.58,431.97 63,863.1 7.56,1284.99l3652.53 3652.53c615.51,615.3 1612.38,615.3 2227.47,0 614.88,-614.46 614.88,-1611.75 0,-2227.05z"/>
  <path class="fil0 str0" d="M12551.28 15225.9c-564.9,153.09 -1169.07,-128.31 -1397.97,-683.13 -231,-555.87 -2.73,-1181.88 505.26,-1473.57 -274.05,-366.24 -595.56,-685.44 -952.56,-952.35 -292.32,507.57 -917.91,735.84 -1473.36,505.68 -555.24,-230.16 -836.43,-834.12 -683.55,-1399.02 -441.42,-64.26 -893.97,-65.31 -1347.57,0 153.3,564.9 -127.89,1168.86 -683.55,1399.02 -555.03,230.16 -1181.46,2.31 -1473.15,-505.68 -366.24,273.63 -685.86,594.72 -952.98,952.35 507.99,291.69 736.26,917.49 506.73,1473.57 -230.16,555.66 -834.75,836.22 -1399.86,683.13 -64.47,442.05 -65.52,895.02 0,1347.57 564.9,-153.09 1169.7,127.89 1399.86,683.76 229.74,555.66 1.89,1181.46 -506.73,1473.57 274.05,366.66 595.56,685.86 952.98,952.77 291.69,-507.99 917.28,-736.68 1473.15,-506.1 555.66,230.16 836.85,833.91 683.55,1399.44 442.05,63.84 895.02,65.31 1347.57,-0.42 -153.09,-565.11 128.31,-1168.86 683.55,-1399.02 555.87,-230.58 1181.88,-1.47 1473.36,506.1 366.45,-274.26 685.65,-595.14 952.56,-952.77 -507.99,-291.69 -735.84,-917.49 -505.26,-1473.57 229.74,-555.66 833.07,-836.64 1398.6,-683.76 64.05,-441.42 65.1,-894.18 -0.63,-1347.57zm-4676.28 2774.1c-1159.2,0 -2099.79,-940.59 -2099.79,-2100.21 0,-1159.41 940.59,-2100 2099.79,-2100 1160.46,0 2100.21,940.59 2100.21,2100 0.21,1159.62 -939.75,2100.21 -2100.21,2100.21z"/>
 </g>
</svg>
