<?xml version="1.0" encoding="UTF-8"?>
<!DOCTYPE svg PUBLIC "-//W3C//DTD SVG 1.1//EN" "http://www.w3.org/Graphics/SVG/1.1/DTD/svg11.dtd">
<!-- Creator: CorelDRAW 2018 (64-Bit) -->
<svg xmlns="http://www.w3.org/2000/svg" xml:space="preserve" width="21mm" height="30mm" version="1.1" 
style="shape-rendering:geometricPrecision; text-rendering:geometricPrecision; image-rendering:optimizeQuality; fill-rule:evenodd; clip-rule:evenodd"
viewBox="0 0 21000 29700">
 <defs>
  <style type="text/css">
   <![CDATA[
    .str0 {stroke:black;stroke-width:420;stroke-linecap:round;stroke-linejoin:round;stroke-miterlimit:22.9256}
    .fil0 {fill:#8080FF}
   ]]>
  </style>
 </defs>
 <g id="Layer_x0020_1">
  <metadata id="CorelCorpID_0Corel-Layer"/>
  <g id="_1748856889248">
   <path class="fil0 str0" d="M11790.53 6410.64c-284.88,140.75 -528.77,387.86 -669.48,700.69 -101.59,225.85 -153.07,485.19 -177.22,779.27 -1041.31,-323.21 -1979.44,-508.76 -2756.69,-478.04 -293.53,15.1 -559.75,63.04 -807.32,137.52 -384.34,188.97 -562.74,549.74 -708.87,923.34 -79.19,202.48 -142.34,419.21 -203.47,641.76 -1256.46,-391.32 -2588.6,-643.29 -4095.66,-648.31 -432.86,-1.47 -882,17.66 -1345.53,58.94 -192.03,16.97 -360.34,182 -380.69,373.26 -130.29,1183.38 577.98,2428.07 1266.77,3791.6 688.79,1363.53 1392.11,2822.11 1489.93,4204.14 12.6,178.75 152.84,341.06 328.18,379.83 4744.01,1088.12 9662.8,869.06 14544.85,654.84 142.53,-6.72 278.91,-91.46 347.87,-216.09l1699.96 -2992.67c134.81,-237.09 -37.8,-585.19 -308.49,-622.13 -559.3,-82.59 -1094.6,-177.64 -1608.07,-288.12 -214.16,-667.32 -499.15,-1205.02 -938.59,-1637.14 -423.96,-416.89 -999.07,-716.44 -1713.09,-1001.93l0 -766.16c-45.57,-277.96 -215.46,-365.8 -420.07,-491.15l0 -1669.87c0.84,-111.58 -45.19,-222.78 -124.71,-301.23 -457.37,-451.94 -1061.33,-885.07 -1654.02,-1191.83 -641.83,-324.85 -1125.36,-513.71 -1765.6,-340.52l0.01 0zm-3518.06 1853.25c628.69,-6.34 1514.88,140.9 2500.72,451.85 1291.96,407.51 2757.94,1086.27 4141.61,1938.37l0 785.82c0.21,170.21 115.48,334.41 275.67,392.91 813.44,299.96 1329.09,584.64 1686.83,936.45 223.59,219.87 397.1,472.82 544.78,798.9 -2916.76,-756.76 -5136.1,-1908.31 -7285.55,-2940.28 -953.21,-457.65 -1895.19,-887.48 -2874.84,-1244.23 7.01,-25.22 12.64,-53.81 19.7,-78.58 2370.27,22.22 3926.03,612.34 6373.22,2036.6 190.73,109.7 464.34,36.39 574.31,-153.91 109.97,-190.28 36.49,-463.26 -154.24,-572.99 -2390.74,-1391.4 -4117.59,-2064.75 -6465.11,-2141.37 54.86,-84.87 101.77,-135.37 124.71,-150.62 145.9,-34.99 328.65,-56.82 538.21,-58.94l-0.02 0.02zm-5900.64 1041.21c2854.58,5.29 5015.84,932.59 7397.13,2075.89 2591.72,1244.32 5461.06,2714.42 9543.42,3418.32l-682.61 1211.49c-4968.91,-2.1 -10002.15,-213.13 -14774.57,-1041.22 -281.5,-712.97 -825.95,-1921.65 -1194.57,-2652.15 -595.81,-1179.47 -1079.94,-2231.06 -1155.19,-2979.58 291.29,-17.6 588.96,-33.26 866.39,-32.74l0 -0.01zm4141.6 1781.2c-290,0 -525.08,328.38 -525.08,733.45 0,405.05 235.09,733.43 525.08,733.43 290,0 525.08,-328.38 525.08,-733.43 0,-405.07 -235.09,-733.45 -525.08,-733.45z" display="inline"/>
  </g>
 </g>
</svg>
