<?xml version="1.0" encoding="UTF-8"?>
<!DOCTYPE svg PUBLIC "-//W3C//DTD SVG 1.1//EN" "http://www.w3.org/Graphics/SVG/1.1/DTD/svg11.dtd">
<!-- Creator: CorelDRAW 2019 (64-Bit) -->
<svg xmlns="http://www.w3.org/2000/svg" xml:space="preserve" width="210mm" height="297mm" version="1.1" style="shape-rendering:geometricPrecision; text-rendering:geometricPrecision; image-rendering:optimizeQuality; fill-rule:evenodd; clip-rule:evenodd"
viewBox="0 0 21000 29700"
 xmlns:xlink="http://www.w3.org/1999/xlink"
 enable-background="new 0 0 100 100">
 <defs>
  <style type="text/css">
   <![CDATA[
    .str0 {stroke:#2B2A29;stroke-width:20;stroke-miterlimit:22.9256}
    .fil1 {fill:#FEFEFE}
    .fil0 {fill:black}
   ]]>
  </style>
 </defs>
 <g id="Layer_x0020_1">
  <metadata id="CorelCorpID_0Corel-Layer"/>
  <path class="fil0" d="M19551 7899c-63,-357 -147,-630 -252,-840 -294,-609 -714,-714 -966,-714 -210,0 -567,63 -840,483l-945 0c0,0 0,0 0,0l-420 0c-273,-399 -630,-483 -840,-483 -210,0 -567,63 -840,483l-1302 0c-273,-399 -630,-483 -840,-483 -210,0 -567,63 -840,483l-1302 0c-273,-399 -630,-483 -840,-483 -231,0 -672,105 -966,714 -105,210 -189,483 -252,840 -126,630 -189,1449 -168,2331 0,861 84,1701 210,2331 0,42 21,84 21,126 -1176,252 -2709,525 -3612,525 -1596,0 -5775,1029 -2583,2037 3192,1008 4557,2142 2877,2730 -1701,588 -1344,1596 2898,1869 4242,273 9849,-1743 6090,-2394 -3759,-651 -7140,-1491 -5376,-1638 1764,-168 231,-1743 -756,-1659 -525,42 147,-210 861,-441 273,357 588,420 798,420 210,0 567,-63 840,-483l1302 0c273,399 630,483 840,483 210,0 567,-63 840,-483l1302 0c273,399 630,483 840,483 210,0 546,-63 819,-483l1302 0c189,252 399,378 567,420 105,42 231,42 294,42 231,0 672,-84 966,-714 105,-210 189,-483 252,-840 126,-630 189,-1449 189,-2331 0,-882 -42,-1701 -168,-2331zm-9681 4116c0,0 -189,42 -882,525 0,-21 0,-42 -21,-63 0,0 0,0 0,0 0,-21 0,-42 -21,-63 0,0 0,0 0,-21 0,-21 0,-42 -21,-84 0,0 0,0 0,-21 0,-21 0,-42 -21,-63 0,0 0,0 0,0 0,-21 0,-63 -21,-84 0,0 0,-21 0,-21 0,-21 0,-63 -21,-84l0 0c0,-21 0,-63 -21,-84 0,0 0,-21 0,-21 0,-21 0,-63 -21,-84 0,0 0,0 0,-21 0,-21 0,-63 0,-84 0,0 0,-21 0,-21 0,-21 0,-63 0,-84 0,0 0,-21 0,-21 0,-21 0,-63 0,-84 0,0 0,0 0,-21 0,-21 0,-63 0,-105 0,0 0,-21 0,-21 0,-21 0,-63 0,-84 0,0 0,0 0,0 0,-42 0,-63 0,-105 0,0 0,-21 0,-21 0,-42 0,-63 0,-105 0,0 0,0 0,0 0,-42 0,-63 0,-105 0,0 0,-21 0,-21 0,-42 0,-63 0,-105 0,0 0,-21 0,-21 0,-21 0,-63 0,-84 0,0 0,-21 0,-21 0,-42 0,-63 0,-105 0,0 0,-21 0,-21 0,-42 0,-63 0,-105 0,0 0,0 0,-21 0,-42 0,-63 0,-105 0,0 0,-21 0,-21 0,-42 0,-84 0,-105 0,-42 0,-84 0,-105 0,0 0,-21 0,-21 0,-42 0,-63 0,-105 0,0 0,0 0,-21 0,-42 0,-63 0,-105 0,0 0,-21 0,-21 0,-42 0,-63 0,-105 0,0 0,-21 0,-21 0,-21 0,-63 0,-84 0,0 0,-21 0,-21 0,-42 0,-63 0,-105 0,0 0,-21 0,-21 0,-42 0,-63 0,-105 0,0 0,0 0,0 0,-42 0,-63 0,-105 0,0 0,-21 0,-21 0,-42 0,-63 0,-105 0,0 0,0 0,0 0,-21 0,-63 0,-84 0,0 0,-21 0,-21 0,-42 0,-63 0,-84 0,0 0,0 0,-21 0,-21 0,-63 0,-84 0,0 0,-21 0,-21 0,-21 0,-63 0,-84 0,0 0,-21 0,-21 0,-21 0,-63 0,-84 0,0 0,0 0,-21 0,-21 0,-63 0,-84 0,0 0,-21 0,-21 0,-21 0,-63 21,-84 0,0 0,0 0,0 0,-21 0,-63 21,-84 0,0 0,-21 0,-21 0,-21 0,-63 21,-84 0,0 0,0 0,0 0,-21 0,-42 21,-63 0,0 0,0 0,-21 0,-21 0,-42 21,-84 0,0 0,0 0,-21 0,-21 0,-42 21,-63 0,0 0,0 0,-21 0,-21 0,-42 21,-63 0,0 0,0 0,-21 0,-21 0,-42 21,-63 0,0 0,0 0,0 0,-21 0,-42 21,-63 0,0 0,0 0,-21 0,-21 21,-42 21,-63 0,0 0,0 0,0 0,-21 21,-42 21,-63 0,0 0,0 0,-21 0,-21 21,-42 21,-63 0,0 0,0 0,0 0,-21 21,-42 21,-42 0,0 0,0 0,0 0,-21 21,-42 21,-42 0,0 0,0 0,0 0,-21 21,-21 21,-42 0,0 0,0 0,0 0,-21 21,-21 21,-42 0,0 0,0 0,0 63,-147 147,-231 231,-231 336,0 609,1365 609,3066 -21,693 -63,1302 -126,1806z"/>
  <path class="fil1 str0" d="M9996 10209c0,-1701 -273,-3066 -609,-3066 -84,0 -168,84 -231,231 0,21 -21,21 -21,42 0,21 -21,21 -21,42 0,0 -21,21 -21,42 0,0 -21,21 -21,42 0,21 -21,42 -21,63 0,21 0,21 0,21 0,21 -21,42 -21,63 0,21 -21,42 -21,63 0,21 0,21 0,21 -21,21 -21,42 -21,63 -21,21 -21,42 -21,63 0,21 0,21 0,21 -21,21 -21,42 -21,63 0,21 0,21 0,21 -21,21 -21,42 -21,63 0,21 0,21 0,21 -21,42 -21,63 -21,84 0,21 0,21 0,21 -21,21 -21,42 -21,63 -21,21 -21,63 -21,84 0,0 0,21 0,21 -21,21 -21,63 -21,84 -21,21 -21,63 -21,84 0,0 0,21 0,21 0,21 0,63 0,84 0,21 0,21 0,21 0,21 0,63 0,84 0,0 0,21 0,21 0,21 0,63 0,84 0,0 0,21 0,21 0,21 0,63 0,84 0,21 0,21 0,21 0,21 0,42 0,84 0,0 0,21 0,21 0,21 0,63 0,84 0,42 0,63 0,105 0,0 0,21 0,21 0,42 0,63 0,105 0,42 0,63 0,105 0,0 0,21 0,21 0,42 0,63 0,105 0,0 0,21 0,21 0,21 0,63 0,84 0,0 0,21 0,21 0,42 0,63 0,105 0,0 0,21 0,21 0,42 0,63 0,105 0,21 0,21 0,21 0,42 0,63 0,105 0,0 0,21 0,21 0,21 0,63 0,105 0,21 0,63 0,105 0,0 0,21 0,21 0,42 0,63 0,105 0,21 0,21 0,21 0,42 0,63 0,105 0,0 0,21 0,21 0,42 0,63 0,105 0,0 0,21 0,21 0,21 0,63 0,84 0,0 0,21 0,21 0,42 0,63 0,105 0,0 0,21 0,21 0,42 0,63 0,105 0,42 0,63 0,105 0,0 0,21 0,21 0,42 0,63 0,105 0,21 0,63 0,84 0,0 0,21 0,21 0,42 0,84 0,105 0,21 0,21 0,21 0,21 0,63 0,84 0,0 0,21 0,21 0,21 0,63 0,84 0,0 0,21 0,21 0,21 0,63 0,84 0,21 0,21 0,21 21,21 21,63 21,84 0,0 0,21 0,21 21,21 21,63 21,84 21,21 21,63 21,84 0,0 0,21 0,21 21,21 21,63 21,84 21,21 21,42 21,63 0,21 0,21 0,21 21,42 21,63 21,84 0,21 0,21 0,21 21,21 21,42 21,63 21,21 21,42 21,63 693,-483 882,-525 882,-525 63,-504 105,-1113 126,-1806z"/>
 </g>
</svg>
