<?xml version="1.0" encoding="UTF-8" standalone="no"?>
<!DOCTYPE svg PUBLIC "-//W3C//DTD SVG 1.1//EN" "http://www.w3.org/Graphics/SVG/1.1/DTD/svg11.dtd">
<!-- Generated by Microsoft Visio, SVG Export VesselAndOil.svg Page-1 -->
<svg xmlns="http://www.w3.org/2000/svg" xmlns:xlink="http://www.w3.org/1999/xlink" xmlns:ev="http://www.w3.org/2001/xml-events"
		xmlns:v="http://schemas.microsoft.com/visio/2003/SVGExtensions/" width="0.221392in" height="0.388539in"
		viewBox="0 0 15.9402 27.9748" xml:space="preserve" color-interpolation-filters="sRGB" class="st6">
	<v:documentProperties v:langID="1039" v:viewMarkup="false"/>

	<style type="text/css">
	<![CDATA[
		.st1 {fill:#7f7f7f;stroke:none;stroke-width:0.0260417}
		.st2 {fill:#00ff00;stroke:#000000;stroke-width:0.078125}
		.st3 {fill:#f2f2f2;stroke:#000000;stroke-width:0.0260417}
		.st4 {fill:none}
		.st5 {stroke:#000000;stroke-linecap:round;stroke-linejoin:round;stroke-width:0.104167}
		.st6 {fill:none;fill-rule:evenodd;font-size:12px;overflow:visible;stroke-linecap:square;stroke-miterlimit:3}
	]]>
	</style>

	<g v:mID="0" v:index="1" v:groupContext="foregroundPage">
		<title>Page-1</title>
		<v:pageProperties v:drawingScale="1" v:pageScale="1" v:drawingUnits="0" v:shadowOffsetX="0.9375" v:shadowOffsetY="-0.9375"/>
		<g id="shape1-1" v:mID="1" v:groupContext="shape" transform="translate(5.235,0)">
			<title>Sheet.1</title>
			<path d="M2.34 11.33 C2.86 11.37 3.17 11.82 3.51 12.15 C4.62 13.2 6 12.86 7.03 13.2 C8.27 13.62 9.01 15.03 9.73 16.48
						 C10.19 17.43 10.63 18.4 10.66 19.3 C10.71 20.57 9.91 21.71 9.49 23.05 C9.15 24.12 9.05 25.33 8.32 26.33
						 C7.66 27.24 6.48 27.97 5.86 27.5 C5.39 27.14 5.25 26.1 5.16 25.39 C5.06 24.63 5.02 24.25 4.57 23.75 C4.3
						 23.45 3.88 23.11 3.75 22.7 C3.51 21.93 4.26 20.93 4.45 20 C5.08 17.01 0 14.83 2.34 11.33 Z" class="st1"/>
		</g>
		<g id="shape2-3" v:mID="2" v:groupContext="shape" transform="translate(0.078125,-5.43625)">
			<title>Sheet.2</title>
			<path d="M3.75 5.51 L1.87 9.26 L0 12.08 L0 26.14 L1.84 27.97 L5.62 27.97 L7.5 26.14 L7.5 12.08 L5.62 9.26 L3.75 5.51 Z"
					class="st2"/>
		</g>
		<g id="shape3-5" v:mID="3" v:groupContext="shape" transform="translate(1.01562,-7.27135)">
			<title>Sheet.3</title>
			<rect x="0" y="24.2248" width="5.625" height="3.75" class="st3"/>
		</g>
		<g id="shape4-7" v:mID="4" v:groupContext="shape" transform="translate(-24.1467,15.0784) rotate(-90)">
			<title>Sheet.4</title>
			<path d="M0 27.97 L9.37 27.97 L0 27.97 Z" class="st4"/>
			<path d="M0 27.97 L9.37 27.97" class="st5"/>
		</g>
	</g>
</svg>
